# MagicaVoxel @ Ephtracy

# group
o 

# material
mtllib stick.mtl
usemtl palette

# normals
vn -1 0 0
vn 1 0 0
vn 0 0 1
vn 0 0 -1
vn 0 -1 0
vn 0 1 0

# texcoords
vt 0.0449219 0.5
vt 0.396484 0.5

# verts
v -0.2 0.7 0.1
v -0.2 0.7 -0.2
v -0.2 1.2 0.2
v -0.2 1.2 0.1
v -0.2 3.8 0.2
v -0.2 3.8 0.1
v -0.2 4.8 -0.1
v -0.2 4.8 -0.2
v -0.2 5 0.1
v -0.2 5 -5.96046e-08
v -0.2 5.4 -5.96046e-08
v -0.2 5.4 -0.1
v -0.0999999 3.8 0.2
v -0.0999999 3.8 0.1
v -0.0999999 4.8 -0.1
v -0.0999999 4.8 -0.2
v -0.0999999 5 0.1
v -0.0999999 5 -5.96046e-08
v -0.0999999 5.2 0.2
v -0.0999999 5.2 0.1
v -0.0999999 5.4 -5.96046e-08
v -0.0999999 5.4 -0.1
v -0.0999999 6 -0.1
v -0.0999999 6 -0.2
v -0.0999999 6.4 0.1
v -0.0999999 6.4 -5.96046e-08
v -0.0999999 7.4 -5.96046e-08
v -0.0999999 7.4 -0.1
v 5.96046e-08 2.6 0.3
v 5.96046e-08 2.6 0.2
v 5.96046e-08 2.8 0.4
v 5.96046e-08 2.8 0.3
v 5.96046e-08 3 0.6
v 5.96046e-08 3 0.4
v 5.96046e-08 3.2 0.4
v 5.96046e-08 3.2 0.2
v 5.96046e-08 3.3 0.7
v 5.96046e-08 3.3 0.6
v 5.96046e-08 3.4 0.5
v 5.96046e-08 3.4 0.4
v 5.96046e-08 3.6 0.6
v 5.96046e-08 3.6 0.5
v 5.96046e-08 3.7 0.8
v 5.96046e-08 3.7 0.7
v 5.96046e-08 3.9 0.7
v 5.96046e-08 3.9 0.6
v 5.96046e-08 4.2 0.8
v 5.96046e-08 4.2 0.7
v 5.96046e-08 6 -0.1
v 5.96046e-08 6 -0.2
v 5.96046e-08 7.4 -5.96046e-08
v 5.96046e-08 7.4 -0.1
v 5.96046e-08 7.9 -5.96046e-08
v 5.96046e-08 7.9 -0.1
v 5.96046e-08 8 -0.1
v 5.96046e-08 8 -0.2
v 0.1 2.6 0.4
v 0.1 2.6 0.3
v 0.1 2.8 0.4
v 0.1 2.8 0.3
v 0.1 3.4 0.5
v 0.1 3.4 0.4
v 0.1 3.5 0.5
v 0.1 3.5 0.4
v -0.0999999 1.2 0.2
v -0.0999999 1.2 0.1
v -0.0999999 1.4 0.2
v -0.0999999 1.4 0.1
v 5.96046e-08 0.7 -0.1
v 5.96046e-08 0.7 -0.2
v 5.96046e-08 1.1 -0.1
v 5.96046e-08 1.1 -0.2
v 5.96046e-08 4.9 0.2
v 5.96046e-08 4.9 0.1
v 5.96046e-08 5.2 0.2
v 5.96046e-08 5.2 0.1
v 5.96046e-08 6 0.1
v 5.96046e-08 6 -5.96046e-08
v 5.96046e-08 6.4 0.1
v 5.96046e-08 6.4 -5.96046e-08
v 0.1 0.7 0.1
v 0.1 0.7 -0.1
v 0.1 1.1 -0.1
v 0.1 1.1 -0.2
v 0.1 1.2 0.1
v 0.1 1.2 -0.2
v 0.1 1.4 0.2
v 0.1 1.4 0.1
v 0.1 1.5 0.2
v 0.1 1.5 0.1
v 0.1 3.3 0.7
v 0.1 3.3 0.6
v 0.1 3.6 0.6
v 0.1 3.7 0.8
v 0.1 3.7 0.7
v 0.1 3.9 0.7
v 0.1 3.9 0.6
v 0.1 4.2 0.8
v 0.1 4.2 0.7
v 0.1 4.4 0.2
v 0.1 4.4 0.1
v 0.1 4.9 0.2
v 0.1 4.9 0.1
v 0.1 5.1 0.1
v 0.1 5.1 -5.96046e-08
v 0.1 6 0.1
v 0.1 6 -5.96046e-08
v 0.1 6.7 -0.1
v 0.1 6.7 -0.2
v 0.1 7.6 -5.96046e-08
v 0.1 7.6 -0.1
v 0.1 7.9 -5.96046e-08
v 0.1 7.9 -0.1
v 0.1 8 -0.1
v 0.1 8 -0.2
v 0.2 1.2 0.1
v 0.2 1.2 -0.2
v 0.2 1.5 0.2
v 0.2 1.5 0.1
v 0.2 2.6 0.4
v 0.2 2.6 0.2
v 0.2 3 0.6
v 0.2 3 0.4
v 0.2 3.2 0.4
v 0.2 3.2 0.2
v 0.2 3.5 0.5
v 0.2 3.5 0.4
v 0.2 3.6 0.6
v 0.2 3.6 0.5
v 0.2 4.4 0.2
v 0.2 4.4 0.1
v 0.2 5.1 0.1
v 0.2 5.1 -5.96046e-08
v 0.2 6.7 -0.1
v 0.2 6.7 -0.2
v 0.2 7.6 -5.96046e-08
v 0.2 7.6 -0.1
v 5.96046e-08 3.7 0.8
v 5.96046e-08 4.2 0.8
v 0.1 3.7 0.8
v 0.1 4.2 0.8
v 5.96046e-08 3.3 0.7
v 5.96046e-08 3.7 0.7
v 0.1 3.3 0.7
v 0.1 3.7 0.7
v 5.96046e-08 3 0.6
v 5.96046e-08 3.3 0.6
v 0.1 3.3 0.6
v 0.1 3.6 0.6
v 0.2 3 0.6
v 0.2 3.6 0.6
v 5.96046e-08 2.8 0.4
v 5.96046e-08 3 0.4
v 0.1 2.6 0.4
v 0.1 2.8 0.4
v 0.2 2.6 0.4
v 0.2 3 0.4
v 5.96046e-08 2.6 0.3
v 5.96046e-08 2.8 0.3
v 0.1 2.6 0.3
v 0.1 2.8 0.3
v -0.2 1.2 0.2
v -0.2 3.8 0.2
v -0.0999999 1.2 0.2
v -0.0999999 1.4 0.2
v -0.0999999 3.8 0.2
v -0.0999999 5.2 0.2
v 5.96046e-08 2.6 0.2
v 5.96046e-08 3.2 0.2
v 5.96046e-08 4.9 0.2
v 5.96046e-08 5.2 0.2
v 0.1 1.4 0.2
v 0.1 1.5 0.2
v 0.1 4.4 0.2
v 0.1 4.9 0.2
v 0.2 1.5 0.2
v 0.2 2.6 0.2
v 0.2 3.2 0.2
v 0.2 4.4 0.2
v -0.2 0.7 0.1
v -0.2 1.2 0.1
v -0.2 3.8 0.1
v -0.2 5 0.1
v -0.0999999 1.2 0.1
v -0.0999999 1.4 0.1
v -0.0999999 3.8 0.1
v -0.0999999 5 0.1
v -0.0999999 5.2 0.1
v -0.0999999 6.4 0.1
v 5.96046e-08 4.9 0.1
v 5.96046e-08 5.2 0.1
v 5.96046e-08 6 0.1
v 5.96046e-08 6.4 0.1
v 0.1 0.7 0.1
v 0.1 1.2 0.1
v 0.1 1.4 0.1
v 0.1 1.5 0.1
v 0.1 4.4 0.1
v 0.1 4.9 0.1
v 0.1 5.1 0.1
v 0.1 6 0.1
v 0.2 1.2 0.1
v 0.2 1.5 0.1
v 0.2 4.4 0.1
v 0.2 5.1 0.1
v -0.2 5 -5.96046e-08
v -0.2 5.4 -5.96046e-08
v -0.0999999 5 -5.96046e-08
v -0.0999999 5.4 -5.96046e-08
v -0.0999999 6.4 -5.96046e-08
v -0.0999999 7.4 -5.96046e-08
v 5.96046e-08 6 -5.96046e-08
v 5.96046e-08 6.4 -5.96046e-08
v 5.96046e-08 7.4 -5.96046e-08
v 5.96046e-08 7.9 -5.96046e-08
v 0.1 5.1 -5.96046e-08
v 0.1 6 -5.96046e-08
v 0.1 7.6 -5.96046e-08
v 0.1 7.9 -5.96046e-08
v 0.2 5.1 -5.96046e-08
v 0.2 7.6 -5.96046e-08
v 5.96046e-08 7.9 -0.1
v 5.96046e-08 8 -0.1
v 0.1 7.9 -0.1
v 0.1 8 -0.1
v 5.96046e-08 3.9 0.7
v 5.96046e-08 4.2 0.7
v 0.1 3.9 0.7
v 0.1 4.2 0.7
v 5.96046e-08 3.6 0.6
v 5.96046e-08 3.9 0.6
v 0.1 3.6 0.6
v 0.1 3.9 0.6
v 5.96046e-08 3.4 0.5
v 5.96046e-08 3.6 0.5
v 0.1 3.4 0.5
v 0.1 3.5 0.5
v 0.2 3.5 0.5
v 0.2 3.6 0.5
v 5.96046e-08 3.2 0.4
v 5.96046e-08 3.4 0.4
v 0.1 3.4 0.4
v 0.1 3.5 0.4
v 0.2 3.2 0.4
v 0.2 3.5 0.4
v -0.2 4.8 -0.1
v -0.2 5.4 -0.1
v -0.0999999 4.8 -0.1
v -0.0999999 5.4 -0.1
v -0.0999999 6 -0.1
v -0.0999999 7.4 -0.1
v 5.96046e-08 0.7 -0.1
v 5.96046e-08 1.1 -0.1
v 5.96046e-08 6 -0.1
v 5.96046e-08 7.4 -0.1
v 0.1 0.7 -0.1
v 0.1 1.1 -0.1
v 0.1 6.7 -0.1
v 0.1 7.6 -0.1
v 0.2 6.7 -0.1
v 0.2 7.6 -0.1
v -0.2 0.7 -0.2
v -0.2 4.8 -0.2
v -0.0999999 4.8 -0.2
v -0.0999999 6 -0.2
v 5.96046e-08 0.7 -0.2
v 5.96046e-08 1.1 -0.2
v 5.96046e-08 6 -0.2
v 5.96046e-08 8 -0.2
v 0.1 1.1 -0.2
v 0.1 1.2 -0.2
v 0.1 6.7 -0.2
v 0.1 8 -0.2
v 0.2 1.2 -0.2
v 0.2 6.7 -0.2
v -0.2 0.7 0.1
v 0.1 0.7 0.1
v -0.0999999 0.7 -5.96046e-08
v 5.96046e-08 0.7 -5.96046e-08
v -0.0999999 0.7 -0.1
v 5.96046e-08 0.7 -0.1
v 0.1 0.7 -0.1
v -0.2 0.7 -0.2
v 5.96046e-08 0.7 -0.2
v 5.96046e-08 1.1 -0.1
v 0.1 1.1 -0.1
v 5.96046e-08 1.1 -0.2
v 0.1 1.1 -0.2
v -0.2 1.2 0.2
v -0.0999999 1.2 0.2
v -0.2 1.2 0.1
v -0.0999999 1.2 0.1
v 0.1 1.2 0.1
v 0.2 1.2 0.1
v 0.1 1.2 -0.2
v 0.2 1.2 -0.2
v -0.0999999 1.4 0.2
v 0.1 1.4 0.2
v -0.0999999 1.4 0.1
v 0.1 1.4 0.1
v 0.1 1.5 0.2
v 0.2 1.5 0.2
v 0.1 1.5 0.1
v 0.2 1.5 0.1
v 0.1 2.6 0.4
v 0.2 2.6 0.4
v 5.96046e-08 2.6 0.3
v 0.1 2.6 0.3
v 5.96046e-08 2.6 0.2
v 0.2 2.6 0.2
v 5.96046e-08 2.8 0.4
v 0.1 2.8 0.4
v 5.96046e-08 2.8 0.3
v 0.1 2.8 0.3
v 5.96046e-08 3 0.6
v 0.2 3 0.6
v 5.96046e-08 3 0.4
v 0.2 3 0.4
v 5.96046e-08 3.3 0.7
v 0.1 3.3 0.7
v 5.96046e-08 3.3 0.6
v 0.1 3.3 0.6
v 5.96046e-08 3.7 0.8
v 0.1 3.7 0.8
v 5.96046e-08 3.7 0.7
v 0.1 3.7 0.7
v 5.96046e-08 3.2 0.4
v 0.2 3.2 0.4
v 5.96046e-08 3.2 0.2
v 0.2 3.2 0.2
v 5.96046e-08 3.4 0.5
v 0.1 3.4 0.5
v 5.96046e-08 3.4 0.4
v 0.1 3.4 0.4
v 0.1 3.5 0.5
v 0.2 3.5 0.5
v 0.1 3.5 0.4
v 0.2 3.5 0.4
v 5.96046e-08 3.6 0.6
v 0.1 3.6 0.6
v 0.2 3.6 0.6
v 5.96046e-08 3.6 0.5
v 0.2 3.6 0.5
v -0.2 3.8 0.2
v -0.0999999 3.8 0.2
v -0.2 3.8 0.1
v -0.0999999 3.8 0.1
v 5.96046e-08 3.9 0.7
v 0.1 3.9 0.7
v 5.96046e-08 3.9 0.6
v 0.1 3.9 0.6
v 5.96046e-08 4.2 0.8
v 0.1 4.2 0.8
v 5.96046e-08 4.2 0.7
v 0.1 4.2 0.7
v 0.1 4.4 0.2
v 0.2 4.4 0.2
v 0.1 4.4 0.1
v 0.2 4.4 0.1
v -0.2 4.8 -0.1
v -0.0999999 4.8 -0.1
v -0.2 4.8 -0.2
v -0.0999999 4.8 -0.2
v 5.96046e-08 4.9 0.2
v 0.1 4.9 0.2
v 5.96046e-08 4.9 0.1
v 0.1 4.9 0.1
v -0.2 5 0.1
v -0.0999999 5 0.1
v -0.2 5 -5.96046e-08
v -0.0999999 5 -5.96046e-08
v 0.1 5.1 0.1
v 0.2 5.1 0.1
v 0.1 5.1 -5.96046e-08
v 0.2 5.1 -5.96046e-08
v -0.0999999 5.2 0.2
v 5.96046e-08 5.2 0.2
v -0.0999999 5.2 0.1
v 5.96046e-08 5.2 0.1
v -0.2 5.4 -5.96046e-08
v -0.0999999 5.4 -5.96046e-08
v -0.2 5.4 -0.1
v -0.0999999 5.4 -0.1
v 5.96046e-08 6 0.1
v 0.1 6 0.1
v 5.96046e-08 6 -5.96046e-08
v 0.1 6 -5.96046e-08
v -0.0999999 6 -0.1
v 5.96046e-08 6 -0.1
v -0.0999999 6 -0.2
v 5.96046e-08 6 -0.2
v -0.0999999 6.4 0.1
v 5.96046e-08 6.4 0.1
v -0.0999999 6.4 -5.96046e-08
v 5.96046e-08 6.4 -5.96046e-08
v 0.1 6.7 -0.1
v 0.2 6.7 -0.1
v 0.1 6.7 -0.2
v 0.2 6.7 -0.2
v -0.0999999 7.4 -5.96046e-08
v 5.96046e-08 7.4 -5.96046e-08
v -0.0999999 7.4 -0.1
v 5.96046e-08 7.4 -0.1
v 0.1 7.6 -5.96046e-08
v 0.2 7.6 -5.96046e-08
v 0.1 7.6 -0.1
v 0.2 7.6 -0.1
v 5.96046e-08 7.9 -5.96046e-08
v 0.1 7.9 -5.96046e-08
v 5.96046e-08 7.9 -0.1
v 0.1 7.9 -0.1
v 5.96046e-08 8 -0.1
v 0.1 8 -0.1
v 5.96046e-08 8 -0.2
v 0.1 8 -0.2

# faces
f 4/2/1 2/2/1 1/2/1
f 5/2/1 4/2/1 3/2/1
f 6/2/1 2/2/1 4/2/1
f 6/2/1 4/2/1 5/2/1
f 7/2/1 2/2/1 6/2/1
f 8/2/1 2/2/1 7/2/1
f 9/2/1 7/2/1 6/2/1
f 10/2/1 7/2/1 9/2/1
f 11/2/1 7/2/1 10/2/1
f 12/2/1 7/2/1 11/2/1
f 17/2/1 14/2/1 13/2/1
f 19/2/1 17/2/1 13/2/1
f 19/2/1 18/2/1 17/2/1
f 20/2/1 18/2/1 19/2/1
f 21/2/1 18/2/1 20/2/1
f 22/2/1 16/2/1 15/2/1
f 23/2/1 16/2/1 22/2/1
f 23/2/1 22/2/1 21/2/1
f 24/2/1 16/2/1 23/2/1
f 25/2/1 21/2/1 20/2/1
f 25/2/1 23/2/1 21/2/1
f 26/2/1 23/2/1 25/2/1
f 27/2/1 23/2/1 26/2/1
f 28/2/1 23/2/1 27/2/1
f 32/2/1 30/2/1 29/2/1
f 34/2/1 32/2/1 31/2/1
f 35/2/1 32/2/1 34/2/1
f 35/2/1 34/2/1 33/2/1
f 36/2/1 30/2/1 32/2/1
f 36/2/1 32/2/1 35/2/1
f 38/2/1 35/2/1 33/2/1
f 39/2/1 35/2/1 38/2/1
f 39/2/1 38/2/1 37/2/1
f 40/2/1 35/2/1 39/2/1
f 41/2/1 39/2/1 37/2/1
f 42/2/1 39/2/1 41/2/1
f 44/2/1 41/2/1 37/2/1
f 45/2/1 41/2/1 44/2/1
f 45/2/1 44/2/1 43/2/1
f 46/2/1 41/2/1 45/2/1
f 47/2/1 45/2/1 43/2/1
f 48/2/1 45/2/1 47/2/1
f 52/2/1 50/2/1 49/2/1
f 53/2/1 52/2/1 51/2/1
f 54/2/1 50/2/1 52/2/1
f 54/2/1 52/2/1 53/2/1
f 55/2/1 50/2/1 54/2/1
f 56/2/1 50/2/1 55/2/1
f 59/2/1 58/2/1 57/2/1
f 60/2/1 58/2/1 59/2/1
f 63/2/1 62/2/1 61/2/1
f 64/2/1 62/2/1 63/2/1
f 65/2/2 66/2/2 67/2/2
f 67/2/2 66/2/2 68/2/2
f 69/2/2 70/2/2 71/2/2
f 71/2/2 70/2/2 72/2/2
f 73/2/2 74/2/2 75/2/2
f 75/2/2 74/2/2 76/2/2
f 77/2/2 78/2/2 79/2/2
f 79/2/2 78/2/2 80/2/2
f 81/2/2 82/2/2 83/2/2
f 81/2/2 83/2/2 85/2/2
f 83/2/2 84/2/2 85/2/2
f 85/2/2 84/2/2 86/2/2
f 87/2/2 88/2/2 89/2/2
f 89/2/2 88/2/2 90/2/2
f 91/2/2 92/2/2 93/2/2
f 91/2/2 93/2/2 95/2/2
f 95/2/2 93/2/2 96/2/2
f 94/2/2 95/2/2 96/2/2
f 96/2/2 93/2/2 97/2/2
f 94/2/2 96/2/2 98/2/2
f 98/2/2 96/2/2 99/2/2
f 100/2/2 101/2/2 102/2/2
f 102/2/2 101/2/2 103/2/2
f 104/2/2 105/2/2 106/2/2
f 106/2/2 105/2/2 107/2/2
f 108/2/2 109/2/2 111/2/2
f 110/2/2 111/2/2 112/2/2
f 111/2/2 109/2/2 113/2/2
f 112/2/2 111/2/2 113/2/2
f 113/2/2 109/2/2 114/2/2
f 114/2/2 109/2/2 115/2/2
f 116/2/2 117/2/2 119/2/2
f 118/2/2 119/2/2 121/2/2
f 120/2/2 121/2/2 123/2/2
f 123/2/2 121/2/2 124/2/2
f 122/2/2 123/2/2 124/2/2
f 121/2/2 119/2/2 125/2/2
f 124/2/2 121/2/2 125/2/2
f 122/2/2 124/2/2 126/2/2
f 126/2/2 124/2/2 127/2/2
f 122/2/2 126/2/2 128/2/2
f 128/2/2 126/2/2 129/2/2
f 125/2/2 119/2/2 130/2/2
f 119/2/2 117/2/2 131/2/2
f 130/2/2 119/2/2 131/2/2
f 131/2/2 117/2/2 132/2/2
f 132/2/2 117/2/2 133/2/2
f 133/2/2 117/2/2 134/2/2
f 134/2/2 117/2/2 135/2/2
f 133/2/2 134/2/2 136/2/2
f 136/2/2 134/2/2 137/2/2
f 140/2/3 139/2/3 138/2/3
f 141/2/3 139/2/3 140/2/3
f 144/2/3 143/2/3 142/2/3
f 145/2/3 143/2/3 144/2/3
f 148/2/3 147/2/3 146/2/3
f 150/2/3 148/2/3 146/2/3
f 150/2/3 149/2/3 148/2/3
f 151/2/3 149/2/3 150/2/3
f 155/2/3 153/2/3 152/2/3
f 156/2/3 155/2/3 154/2/3
f 157/2/3 153/2/3 155/2/3
f 157/2/3 155/2/3 156/2/3
f 160/2/3 159/2/3 158/2/3
f 161/2/3 159/2/3 160/2/3
f 164/2/3 163/2/3 162/2/3
f 165/2/3 163/2/3 164/2/3
f 166/2/3 163/2/3 165/2/3
f 168/2/3 167/2/3 166/2/3
f 168/2/3 166/2/3 165/2/3
f 169/2/3 167/2/3 168/2/3
f 170/2/3 167/2/3 169/2/3
f 171/2/3 167/2/3 170/2/3
f 172/2/3 168/2/3 165/2/3
f 173/2/3 168/2/3 172/2/3
f 174/2/3 170/2/3 169/2/3
f 175/2/3 170/2/3 174/2/3
f 176/2/3 168/2/3 173/2/3
f 177/2/3 168/2/3 176/2/3
f 178/2/3 174/2/3 169/2/3
f 179/2/3 174/2/3 178/2/3
f 184/2/3 181/2/3 180/2/3
f 186/2/3 183/2/3 182/2/3
f 187/2/3 183/2/3 186/2/3
f 191/2/3 189/2/3 188/2/3
f 192/2/3 189/2/3 191/2/3
f 193/2/3 189/2/3 192/2/3
f 194/2/3 185/2/3 184/2/3
f 194/2/3 184/2/3 180/2/3
f 195/2/3 185/2/3 194/2/3
f 196/2/3 185/2/3 195/2/3
f 199/2/3 192/2/3 191/2/3
f 199/2/3 191/2/3 190/2/3
f 200/2/3 192/2/3 199/2/3
f 201/2/3 192/2/3 200/2/3
f 202/2/3 197/2/3 196/2/3
f 202/2/3 196/2/3 195/2/3
f 203/2/3 197/2/3 202/2/3
f 204/2/3 200/2/3 199/2/3
f 204/2/3 199/2/3 198/2/3
f 205/2/3 200/2/3 204/2/3
f 208/2/3 207/2/3 206/2/3
f 209/2/3 207/2/3 208/2/3
f 213/2/3 211/2/3 210/2/3
f 214/2/3 211/2/3 213/2/3
f 217/2/3 213/2/3 212/2/3
f 217/2/3 215/2/3 214/2/3
f 217/2/3 214/2/3 213/2/3
f 218/2/3 215/2/3 217/2/3
f 219/2/3 215/2/3 218/2/3
f 220/2/3 217/2/3 216/2/3
f 220/2/3 218/2/3 217/2/3
f 221/2/3 218/2/3 220/2/3
f 224/2/3 223/2/3 222/2/3
f 225/2/3 223/2/3 224/2/3
f 226/2/4 227/2/4 228/2/4
f 228/2/4 227/2/4 229/2/4
f 230/2/4 231/2/4 232/2/4
f 232/2/4 231/2/4 233/2/4
f 234/2/4 235/2/4 236/2/4
f 236/2/4 235/2/4 237/2/4
f 237/2/4 235/2/4 238/2/4
f 238/2/4 235/2/4 239/2/4
f 240/2/4 241/2/4 242/2/4
f 240/2/4 242/2/4 244/2/4
f 242/2/4 243/2/4 244/2/4
f 244/2/4 243/2/4 245/2/4
f 246/2/4 247/2/4 248/2/4
f 248/2/4 247/2/4 249/2/4
f 250/2/4 251/2/4 254/2/4
f 254/2/4 251/2/4 255/2/4
f 252/2/4 253/2/4 256/2/4
f 256/2/4 253/2/4 257/2/4
f 258/2/4 259/2/4 260/2/4
f 260/2/4 259/2/4 261/2/4
f 262/2/4 263/2/4 264/2/4
f 262/2/4 264/2/4 266/2/4
f 264/2/4 265/2/4 266/2/4
f 266/2/4 265/2/4 267/2/4
f 267/2/4 265/2/4 268/2/4
f 268/2/4 269/2/4 270/2/4
f 267/2/4 268/2/4 270/2/4
f 270/2/4 269/2/4 271/2/4
f 271/2/4 269/2/4 272/2/4
f 272/2/4 269/2/4 273/2/4
f 271/2/4 272/2/4 274/2/4
f 274/2/4 272/2/4 275/2/4
f 278/2/5 277/2/5 276/2/5
f 279/2/5 277/2/5 278/2/5
f 280/2/5 278/2/5 276/2/5
f 280/1/5 279/1/5 278/1/5
f 281/2/5 277/2/5 279/2/5
f 281/1/5 279/1/5 280/1/5
f 282/2/5 277/2/5 281/2/5
f 283/2/5 280/2/5 276/2/5
f 283/2/5 281/2/5 280/2/5
f 284/2/5 281/2/5 283/2/5
f 287/2/5 286/2/5 285/2/5
f 288/2/5 286/2/5 287/2/5
f 291/2/5 290/2/5 289/2/5
f 292/2/5 290/2/5 291/2/5
f 295/2/5 294/2/5 293/2/5
f 296/2/5 294/2/5 295/2/5
f 299/2/5 298/2/5 297/2/5
f 300/2/5 298/2/5 299/2/5
f 303/2/5 302/2/5 301/2/5
f 304/2/5 302/2/5 303/2/5
f 308/2/5 306/2/5 305/2/5
f 309/2/5 308/2/5 307/2/5
f 310/2/5 306/2/5 308/2/5
f 310/2/5 308/2/5 309/2/5
f 313/2/5 312/2/5 311/2/5
f 314/2/5 312/2/5 313/2/5
f 317/2/5 316/2/5 315/2/5
f 318/2/5 316/2/5 317/2/5
f 321/2/5 320/2/5 319/2/5
f 322/2/5 320/2/5 321/2/5
f 325/2/5 324/2/5 323/2/5
f 326/2/5 324/2/5 325/2/5
f 327/2/6 328/2/6 329/2/6
f 329/2/6 328/2/6 330/2/6
f 331/2/6 332/2/6 333/2/6
f 333/2/6 332/2/6 334/2/6
f 335/2/6 336/2/6 337/2/6
f 337/2/6 336/2/6 338/2/6
f 339/2/6 340/2/6 342/2/6
f 340/2/6 341/2/6 342/2/6
f 342/2/6 341/2/6 343/2/6
f 344/2/6 345/2/6 346/2/6
f 346/2/6 345/2/6 347/2/6
f 348/2/6 349/2/6 350/2/6
f 350/2/6 349/2/6 351/2/6
f 352/2/6 353/2/6 354/2/6
f 354/2/6 353/2/6 355/2/6
f 356/2/6 357/2/6 358/2/6
f 358/2/6 357/2/6 359/2/6
f 360/2/6 361/2/6 362/2/6
f 362/2/6 361/2/6 363/2/6
f 364/2/6 365/2/6 366/2/6
f 366/2/6 365/2/6 367/2/6
f 368/2/6 369/2/6 370/2/6
f 370/2/6 369/2/6 371/2/6
f 372/2/6 373/2/6 374/2/6
f 374/2/6 373/2/6 375/2/6
f 376/2/6 377/2/6 378/2/6
f 378/2/6 377/2/6 379/2/6
f 380/2/6 381/2/6 382/2/6
f 382/2/6 381/2/6 383/2/6
f 384/2/6 385/2/6 386/2/6
f 386/2/6 385/2/6 387/2/6
f 388/2/6 389/2/6 390/2/6
f 390/2/6 389/2/6 391/2/6
f 392/2/6 393/2/6 394/2/6
f 394/2/6 393/2/6 395/2/6
f 396/2/6 397/2/6 398/2/6
f 398/2/6 397/2/6 399/2/6
f 400/2/6 401/2/6 402/2/6
f 402/2/6 401/2/6 403/2/6
f 404/2/6 405/2/6 406/2/6
f 406/2/6 405/2/6 407/2/6
f 408/2/6 409/2/6 410/2/6
f 410/2/6 409/2/6 411/2/6
f 412/2/6 413/2/6 414/2/6
f 414/2/6 413/2/6 415/2/6
